<?xml version="1.0" encoding="utf-8"?>
<!-- Generator: Adobe Illustrator 28.0.0, SVG Export Plug-In . SVG Version: 6.00 Build 0)  -->
<svg version="1.1" id="Layer_1" xmlns="http://www.w3.org/2000/svg" xmlns:xlink="http://www.w3.org/1999/xlink" x="0px" y="0px"
	 viewBox="0 0 1506.9 1506.9" style="enable-background:new 0 0 1506.9 1506.9;" xml:space="preserve">
<style type="text/css">
	.st0{fill:#FDB302;}
	.st1{fill:#5B6BB0;}
	.st2{fill:#0C0808;}
	.st3{fill:#F3B28F;}
	.st4{fill:#7BC8ED;}
	.st5{fill:#BED57B;}
</style>
<g>
	<path class="st0" d="M1506.8,1055.1c0,149.4,0,298.9,0.1,448.3c0,2.6-0.4,3.5-3.3,3.5c-500.1-0.1-1000.2-0.1-1500.3,0
		c-2.9,0-3.3-0.9-3.3-3.5c0.1-174.2,0.1-348.4,0.1-522.6c0.2-0.1,0.4-0.3,0.6-0.4c44.5-14,89.7-25.6,135.2-35.9
		c13.4-3,26.8-6,40.1-9c4.8-1.1,5.1-1.8,3.1-6.3c-0.3-0.7-0.3-1.7-0.3-2.5c0.1-16.9,0.3-33.8,0.4-50.8c0-2.5,0.7-3.3,3.3-3.3
		c32.9-0.6,65.7,1.2,98.5,2.5c10.1,0.4,19.9,2.3,29.4,6c14.8,5.7,27.9,14.2,40.7,23.3c37.5,26.7,73.6,55.2,110.6,82.6
		c14.4,10.6,28.1,22.2,44,30.5c7.7,4,15.8,6.6,24.5,6.8c13.9,0.5,27.3-2.3,40.3-6.9c35.2-12.5,69.4-27.6,103-43.9
		c2.2-1.1,3.8-0.9,5.6,0.5c8.2,6.4,16.9,12.1,25.8,17.5c39.5,23.9,80.2,45.6,123,63.2c35.8,14.7,71.7,28.9,109.6,37.6
		c27,6.2,52.4,3.2,76.4-11.4c20.9-12.7,41.3-26.2,61.6-40c29.6-20.1,57.5-42.5,85.5-64.8c10.7-8.6,22.2-16.2,34.7-22
		c10.8-5,22.5-5.6,34.1-5.8c16.1-0.3,32.1,1,48.1,2.2c3.1,0.2,3.4,1.6,3.3,4.2c-0.7,17.9-1.3,35.8-1.9,53.7
		c-0.1,4.3,1.1,5.8,5.2,6.6c5.5,1.1,11.1,2.1,16.6,3.1c28.7,5.1,57.4,10,86.1,15.2c33.6,6.1,67.1,12.9,100.8,18.2
		C1494.4,1052.6,1500.8,1053,1506.8,1055.1z"/>
	<path class="st0" d="M0.1,537.9c0-178.2,0-356.3-0.1-534.5C0,0.6,0.6,0,3.4,0c500,0.1,1000.1,0.1,1500.1,0c2.8,0,3.4,0.6,3.4,3.4
		c-0.1,196.1-0.1,392.1-0.1,588.2c-7.1,1.1-14.3,2.2-21.4,3.3c-25.7,4.2-51.4,8.9-76.9,14.3c-33.1,7-65.9,14.8-98.2,24.8
		c-6.2,1.9-6.2,2-6.3,8.5c0,0.6-0.1,1.2-0.1,1.8c-1.1,16.1-2.1,32.3-3.1,48.4c-0.1,2.4-0.6,3.4-3.3,3.4c-27.5,0.3-54.9,0.8-82.4,1.1
		c-41.8,0.4-83.6-1.1-125.3,3.2c-18,1.9-35.3,5.6-51.2,14.5c-5.4,3-10.7,6.1-16.1,9.2l0,0.1c1.7-2.6,3.4-5.2,5.1-7.9
		c14-22.2,25.1-45.7,33.2-70.6c13.7-42.1,18.9-85.2,15.2-129.4c-2.4-28.5-8.3-56.2-18.1-83c-18.9-51.9-49.1-96.2-91.3-132
		C918,260,861.8,236.2,798.2,230.4c-32.3-2.9-64.4-0.7-96,7c-61.8,15-114.2,46.2-156.7,93.2c-50.5,55.9-77.7,121.9-82.8,196.9
		c-2.7,39.6,2.1,78.5,13.9,116.5c0.7,2.1,2,4.3,1.6,7c-0.8-0.4-1.3-0.6-1.7-0.9c-17.6-14.2-38.3-20.8-60.1-24.9
		c-19.3-3.7-38.9-4.4-58.5-4.8c-56-1-112-0.3-168,1.6c-4.5,0.1-9.1-0.1-13.5,0.4c-2.9,0.3-4-0.3-4.2-3.5c-0.9-11.4-2.1-22.7-3.4-34
		c-1.5-13.5-4-26.9-4.3-40.5c-0.1-3.2-1.1-4.5-4.2-4.7c-9.2-0.6-18.3-1.4-27.5-1.8c-34.7-1.5-69.4-0.8-104.1-0.5
		C19.2,537.5,9.6,537.7,0.1,537.9z"/>
	<path class="st1" d="M1506.8,598.2c0,149.8,0,299.7,0,449.5c-0.9,0.8-1.9,0.3-2.8,0.2c-21.5-3.1-42.8-6.9-64.1-10.8
		c-27.1-5-54.1-10.2-81.2-15.1c-22.9-4.2-45.8-8.1-68.8-11.9c-3.5-0.6-4.5-1.9-4.2-5.5c0.7-8.1,0.9-16.2,1-24.2
		c0.3-24.5,1.8-49,3.3-73.5c2-33.6,4.2-67.3,7.2-100.8c2.2-23.8,4.2-47.6,6.3-71.4c1.1-12.4,2.4-24.9,3.3-37.3
		c1.3-17.6,2.3-35.2,3.3-52.8c0.2-3.4,1.5-4.8,4.7-5.8c24.6-7.3,49.4-13.4,74.4-19.1c28.2-6.4,56.6-11.9,85.1-16.6
		C1485,601.1,1495.8,599.2,1506.8,598.2z"/>
	<path class="st1" d="M0.1,974.1c0-143.2,0-286.4,0-429.7c1.2-0.1,2.4-0.2,3.7-0.3c34.1-1.2,68.1-1.3,102.2-1.1
		c16.2,0.1,32.3,1.3,48.5,2.1c2.9,0.2,4.1,1.2,4.2,4.1c0,3.3,0.3,6.6,0.8,9.9c3.8,28.3,6.7,56.7,9.2,85.1
		c1.8,20.2,2.3,40.4,3.3,60.6c1.6,33.9,2.6,67.9,2.3,101.8c-0.2,20.8-0.5,41.7-1.1,62.5c-0.6,19-0.3,38-0.3,57c0,2.9-0.9,4-3.7,4.7
		c-16.2,3.5-32.3,7.1-48.4,10.9C96,947.6,71.3,953.5,47,960.5C31.3,965,15.7,969.6,0.1,974.1z"/>
	<path class="st2" d="M0.1,974.1c15.6-4.6,31.2-9.2,46.9-13.6c24.4-7,49-12.9,73.7-18.7c16.1-3.8,32.2-7.4,48.4-10.9
		c2.8-0.6,3.8-1.8,3.7-4.7c0-19-0.3-38,0.3-57c0.6-20.8,1-41.7,1.1-62.5c0.3-34-0.8-67.9-2.3-101.8c-0.9-20.2-1.5-40.4-3.3-60.6
		c-2.5-28.4-5.4-56.8-9.2-85.1c-0.4-3.3-0.7-6.6-0.8-9.9c0-2.9-1.2-4-4.2-4.1c-16.2-0.8-32.3-2-48.5-2.1
		c-34.1-0.2-68.2-0.1-102.2,1.1c-1.2,0-2.4,0.2-3.7,0.3c0-2.2,0-4.4,0-6.6c9.5-0.1,19.1-0.3,28.6-0.4c34.7-0.3,69.4-1,104.1,0.5
		c9.2,0.4,18.3,1.2,27.5,1.8c3,0.2,4.1,1.5,4.2,4.7c0.4,13.6,2.8,27,4.3,40.5c1.3,11.3,2.5,22.6,3.4,34c0.3,3.2,1.3,3.7,4.2,3.5
		c4.5-0.4,9-0.2,13.5-0.4c56-1.8,112-2.6,168-1.6c19.6,0.3,39.2,1.1,58.5,4.8c21.8,4.2,42.5,10.7,60.1,24.9c0.4,0.3,0.8,0.5,1.7,0.9
		c0.4-2.8-1-4.9-1.6-7c-11.8-38-16.6-76.8-13.9-116.5c5.1-75,32.4-141.1,82.8-196.9c42.5-47.1,94.9-78.2,156.7-93.2
		c31.6-7.7,63.7-9.9,96-7c63.6,5.8,119.8,29.5,168.5,70.9c42.2,35.8,72.3,80.1,91.3,132c9.8,26.8,15.7,54.5,18.1,83
		c3.7,44.2-1.5,87.3-15.2,129.4c-8.1,24.9-19.3,48.4-33.2,70.6c-1.7,2.6-3.4,5.2-5.1,7.9c0,0,0.1,0,0.1,0.1c0-0.1-0.1-0.1-0.1-0.2
		c5.4-3.1,10.7-6.2,16.1-9.2c15.9-8.9,33.2-12.6,51.2-14.5c41.7-4.3,83.5-2.8,125.3-3.2c27.5-0.3,54.9-0.8,82.4-1.1
		c2.7,0,3.2-1,3.3-3.4c1-16.1,2.1-32.3,3.1-48.4c0-0.6,0.1-1.2,0.1-1.8c0.1-6.5,0.1-6.6,6.3-8.5c32.3-10,65.2-17.8,98.2-24.8
		c25.5-5.4,51.2-10.1,76.9-14.3c7.1-1.2,14.3-2.2,21.4-3.3c0,2.2,0,4.4,0,6.6c-11,1-21.8,2.9-32.7,4.7
		c-28.5,4.8-56.9,10.2-85.1,16.6c-25,5.7-49.8,11.8-74.4,19.1c-3.1,0.9-4.5,2.4-4.7,5.8c-1,17.6-2,35.2-3.3,52.8
		c-0.9,12.4-2.2,24.9-3.3,37.3c-2.1,23.8-4.1,47.6-6.3,71.4c-3,33.6-5.2,67.2-7.2,100.8c-1.4,24.5-3,48.9-3.3,73.5
		c-0.1,8.1-0.3,16.2-1,24.2c-0.3,3.6,0.7,4.9,4.2,5.5c22.9,3.9,45.9,7.8,68.8,11.9c27.1,4.9,54.1,10.2,81.2,15.1
		c21.3,3.9,42.6,7.7,64.1,10.8c0.9,0.1,1.9,0.6,2.8-0.2c0,2.5,0,4.9,0,7.4c-6-2.1-12.4-2.5-18.6-3.4c-33.7-5.3-67.2-12.1-100.8-18.2
		c-28.7-5.2-57.4-10.1-86.1-15.2c-5.5-1-11.1-2-16.6-3.1c-4.2-0.8-5.4-2.4-5.2-6.6c0.6-17.9,1.2-35.8,1.9-53.7
		c0.1-2.6-0.2-4-3.3-4.2c-16-1.2-32-2.4-48.1-2.2c-11.7,0.2-23.3,0.8-34.1,5.8c-12.5,5.8-23.9,13.4-34.7,22
		c-28,22.3-55.9,44.7-85.5,64.8c-20.3,13.7-40.7,27.2-61.6,40c-23.9,14.6-49.4,17.6-76.4,11.4c-37.8-8.7-73.8-22.9-109.6-37.6
		c-42.8-17.6-83.5-39.3-123-63.2c-8.9-5.4-17.6-11.1-25.8-17.5c-1.9-1.5-3.4-1.6-5.6-0.5c-33.6,16.3-67.7,31.4-103,43.9
		c-13,4.6-26.4,7.3-40.3,6.9c-8.8-0.3-16.8-2.8-24.5-6.8c-15.9-8.3-29.7-19.9-44-30.5c-37-27.4-73.1-55.9-110.6-82.6
		c-12.8-9.1-25.9-17.6-40.7-23.3c-9.5-3.6-19.3-5.6-29.4-6c-32.8-1.3-65.6-3.1-98.5-2.5c-2.6,0-3.3,0.8-3.3,3.3
		c0,16.9-0.3,33.8-0.4,50.8c0,0.8,0,1.8,0.3,2.5c2,4.5,1.7,5.2-3.1,6.3c-13.4,3-26.8,6-40.1,9c-45.5,10.3-90.7,22-135.2,35.9
		c-0.2,0.1-0.4,0.3-0.6,0.4C0.1,978.6,0.1,976.3,0.1,974.1z M282.9,626.2c-39.1,0.2-72.8,1.5-106.5,2.2c-2.3,0-3.2,0.6-2.9,3.2
		c0.9,8.6,1.8,17.3,2.3,26c1.9,37,3.6,73.9,4.4,111c0.7,31.5,0,63-0.7,94.5c-0.1,2.9,0.7,3.8,3.6,3.6c5.1-0.3,10.3-0.5,15.4-0.4
		c27.8,0.8,55.6,1.7,83.4,2.7c8.8,0.3,17.5,1.9,25.9,4.7c16.5,5.5,31,14.6,45,24.5c34.5,24.3,67.4,50.6,101.4,75.5
		c15.6,11.5,30.5,23.8,46.9,34.2c11.7,7.4,24.2,11.7,38.2,10.3c9.7-1,19.1-2.9,28.3-6.1c26.4-9.2,52-20.1,77.4-31.7
		c39.6-18,78-38.4,116.3-58.9c10.8-5.8,21.6-11.6,31.9-18.1c8.4-5.3,16.2-11.4,25-16c22.4-11.8,43.7-25.2,64.3-39.9
		c6.4-4.6,12.5-9.6,16.7-16.4c3.8-6.1,3.5-10.8-0.7-16.7c-5.3-7.4-13.3-9.6-21.5-11.4c-1.5-0.3-2.2,0.8-3,1.7
		c-2.5,2.7-5.2,5.2-8.1,7.5c-12.1,9.8-25.5,17.7-38.9,25.7c-44.5,26.5-90.6,50.2-136.7,73.8c-26.8,13.7-54,26.7-80.1,41.8
		c-2.1,1.2-4.7,3.6-6.6,0.2c-1.7-3.1,1.5-4.2,3.5-5.4c13.3-8,27.2-15,41.1-22.1c53.1-27.1,106.7-53.3,158.1-83.5
		c23.2-13.6,48.1-25,66.2-46c3.6-4.2,6.2-8.7,5-14.3c-1.2-5.4-4.9-8.9-10.3-10.5c-6.8-1.9-13.5-1.7-20.3,0.3
		c-13.9,4-26.9,10.5-39.9,16.7c-30,14.3-60.6,27.6-90.4,42.3c-2.4,1.2-3.1,1.8-1.3,4.3c3.6,5,5.7,10.8,7,16.9
		c3.5,16.8-6.4,28.9-23.5,29c-8.8,0-17.2-2-25.5-4.9c-24.9-8.9-48.7-20.6-73-30.9c-34-14.4-68-29.1-101.9-43.6
		c-2.4-1-6.1-1.5-4.5-5.2c1.4-3.4,4.5-1.3,6.7-0.4c36.5,15.5,72.9,31.2,109.4,46.7c20.8,8.8,41.2,18.7,62.5,26.6
		c8.7,3.2,17.7,5.8,27.1,5.6c11.5-0.1,17.7-6.7,17-18.2c-0.6-9.4-4.7-17.3-10.8-24.4c-8.1-9.3-18.5-15.1-29.5-20.2
		c-16.4-7.7-33-15-48.5-24.4c-37.4-22.5-70.7-50-101.2-81.2c-14.5-14.8-27.9-30.6-43.8-44.1c-10.9-9.2-22.2-17.8-35.6-23
		c-23.1-9-47.3-12.1-71.9-13.1C342.7,625.7,310.1,626.2,282.9,626.2z M896.2,844.1c1.1-0.2,1.5-0.2,1.8-0.3c0.8-0.4,1.5-0.8,2.2-1.2
		c19.9-10.4,35.8-25.5,50.3-42.4c12.9-15.1,24.6-31.2,38.3-45.6c9.7-10.1,19.5-19.9,27.3-31.8c16.5-25.2,29.8-51.7,39.3-80.2
		c0.8-2.3,0.3-3.2-2-3.8c-6.3-1.7-12.7-2.7-19.1-3.7c-7.8-1.3-14.5,0.7-20.5,5.6c-9.1,7.5-16.6,16.7-24.8,25
		c-9,9-17.4,18.7-28.7,25.1c-9,5.1-18.4,6.2-28.3,2.7c-4.9-1.7-9.6-3.8-14-6.5c-14.1-8.4-26.9-18.5-36.2-32.2
		c-8.2-12.2-6.6-24.9,3.6-35.4c4.7-4.7,10-8.7,15.4-12.5c20-13.9,40.1-27.8,59-43.2c1.7-1.4,2.1-2.7,1.7-4.7
		c-1.5-6.7-4-12.9-8.4-18.1c-7.1-8.6-14.6-16.8-22.6-24.6c-6.8-6.7-13.4-13.6-18.7-21.6c-7-10.4-7.8-21.1-1.8-32.2
		c2-3.8,4-7.6,6.1-11.3c6.8-12.5,13.4-25,18.1-38.5c5.6-16.1,4.6-31.1-5.2-45.5c-4.8-7.1-8.6-14.8-11.7-22.8
		c-6-15.5-7-30.9,0.6-46.3c2.5-5.2,5-10.3,8-15.3c1.3-2.1,1.1-3.1-1.1-4.4c-12.9-7.8-26.2-14.8-40.3-20.4c-14.1-5.5-9.2-7-20.4,3.9
		c-26.8,26-41.5,58.3-48.6,94.5c-2.5,13-4.6,26-8.9,38.6c-3.4,9.9-8.5,18.4-18,23.7c-8,4.5-16.7,4.4-25.4,3.9
		c-5.8-0.3-11.5-1.2-16.7-3.8c-5.6-2.8-7.6-6.5-6.4-12.6c1.8-9.2,3.7-18.5,5.9-27.7c0.9-3.7,0-5.9-3.4-7.6c-3.7-1.8-7.3-4-10.8-6.2
		c-9.7-5.8-19.7-11.2-27.2-19.8c-6.4-7.3-9.6-15.7-8.5-25.7c0.8-7.5,3.8-14.1,6.8-20.8c8-18.2,15.7-36.4,20.8-55.7
		c0.8-2.9,0.4-3.5-2.7-3c-40.8,7.4-78.4,22.7-113.1,45.4c-5.7,3.7-9.2,8.1-11.3,14.8c-4.3,13.6-5.6,27-1.6,40.8
		c2.4,8.4,6,16.3,9.7,24.2c4.3,9.4,8.5,18.8,9.4,29.2c1.6,18.3-5.4,33.5-17.2,46.9c-5.1,5.8-10.6,11.2-16.1,16.7
		c-4.3,4.4-5.4,9.3-3.7,15.2c2.5,8.1,7.2,15,12.2,21.6c10.1,13.2,22.2,24.5,33.6,36.5c6.5,6.7,12.6,13.7,16.7,22.2
		c5.9,12.1,5.9,23.5-3.7,34c-10.7,11.7-22.9,21.4-37,28.7c-11.8,6.1-23.7,5.2-35.1-1.4c-7-4-13.1-9.1-18.1-15.4
		c-9.8-12.2-19.7-24.4-29.8-36.4c-8.1-9.6-16-19.2-25.4-27.5c-5.5-4.8-11.7-8.4-18.4-11.2c-1.5-0.6-2.6-1.3-2.8,1.4
		c-1.4,19-1,38,0.9,56.9c2.7,26.1,9.4,51.2,17.4,76.1c0.3,0.9,0.9,1.4,1.5,1.9c6.2,5.4,12,11.2,17.6,17.2
		c21.8,23.1,43.7,46,68.4,66.1c28.1,22.8,57.9,42.8,91,57.7c15.4,6.9,31.3,13.1,43,26.2c0.8,0.9,1.3,0.9,2.4,0.3
		c11-6,22.3-11.1,33.7-16.4c28.5-13.2,57-26.5,85.7-39.4c10.5-4.7,21.4-8.4,33.4-6.7c16.8,2.4,24.7,17.4,17.2,30
		c-1.4,2.3-0.1,2.7,1.6,3.1c6.3,1.5,12,4.1,16.9,8.5c9.8,8.7,11,20.2,3,30.4C900.9,839.4,898.7,841.4,896.2,844.1z M682.8,969.3
		c6.3,5,12.7,9.3,19.2,13.3c39.4,24.2,79.9,46.3,122.6,64.1c36,15,72.3,29.3,110.3,38.9c28.1,7.1,54.4,4,79.3-11.6
		c36.3-22.9,71.9-46.7,106-72.8c17.2-13.2,33.6-27.5,51.3-40c18.2-12.8,38-19.6,60.5-18.9c15.6,0.5,31.1,1,46.6,2.4
		c1.8,0.2,3.1,0.3,3.3-2.4c1.1-20.4,2.2-40.9,3.5-61.3c1.3-19.2,2.6-38.4,4.2-57.6c1.7-20.4,3.6-40.8,5.4-61.1
		c1.6-18.9,3-37.9,4.8-56.8c0.3-3.2-0.5-3.7-3.4-3.6c-23,0.4-46.1,0.7-69.1,1.1c-35.5,0.7-71.1-0.7-106.6,1.1
		c-16,0.8-32.1,1.7-47.8,4.8c-23.4,4.5-43,16.5-60.8,31.8c-17.6,15.2-32.5,33-46.8,51.2c-19.2,24.4-41.2,45.3-69,60.1
		c-30.6,16.2-60.9,33-90.5,51.1c-6,3.6-10.9,7.8-13.6,14.4c-2,4.9-4,9.8-4.5,15.1c-1.3,13.2,2.5,19.1,12.5,20.6
		c2.9,0.4,5.9,0.4,8.8-0.2c11.5-2.1,21.9-6.9,32.2-12.1c30.8-15.4,61.1-31.6,92.4-45.9c24.1-11,48-22.2,73.2-30.4
		c2.1-0.7,4.6-1.7,5.7,1.2c1,2.8-1.4,3.8-3.6,4.5c-5.1,1.8-10.2,3.4-15.2,5.4c-42.9,16.9-84.2,37.1-125.2,58.2
		c-15.5,8-30.7,16.3-47.2,22.1c-6.3,2.2-12.7,3.7-19.4,3.4c-11.2-0.5-18.2-6.2-20.2-17.1c-0.7-3.9-0.5-7.8,0.1-11.7
		c0.8-5.3,2.8-10.3,4.9-16.3c-19.4,11.1-38.2,20.9-57.4,31.1c4.9,3.1,8.9,5.8,13.1,8.3c5.1,3,10.2,5.9,15.4,8.6
		c43.2,22.8,88,42.3,133.3,60.5c3.2,1.3,6.3,2.6,9.4,4.1c1.4,0.7,2.2,2,1.6,3.7c-0.6,1.7-2,2-3.6,1.8c-0.8-0.1-1.6-0.5-2.4-0.8
		c-33.2-13.7-66.5-27-98.7-42.7c-21.8-10.6-44.1-20.3-64.2-34c-7.4-5.1-13-5.8-20.8-0.9C703.2,959.8,693,964.1,682.8,969.3z
		 M1071.1,541.7c0.4-14.6-1.1-31.3-3.8-47.9c-8.1-50.1-26.8-95.7-56.9-136.7c-21-28.6-46.3-52.8-75.9-72.5c-1.8-1.2-2.5-1.1-3.5,0.8
		c-3.4,6.2-6.7,12.5-9.4,19.1c-3.9,9.5-4.1,19-1.6,28.8c3,11.5,8.4,22,14.8,31.8c9.6,14.7,10.9,30.2,5.7,46.8
		c-2.9,9.3-6.8,18.1-11,26.8c-5,10.1-11.1,19.6-15.7,29.9c-2.8,6.4-2.5,12.6,0.7,18.7c2.6,5,6,9.6,9.8,13.7
		c10,11.1,21,21.3,30.7,32.7c6.5,7.6,11,16.1,12.7,26c0.7,4.1,1.3,7.5-4,8.6c-0.6,0.1-1.2,0.9-1.7,1.3c-11.2,9.4-23.1,17.8-35,26.3
		c-9.6,6.9-19.2,13.6-28.8,20.4c-2.3,1.6-4.4,3.5-6.5,5.4c-11.1,10.1-12.4,20.5-3,32.3c10.5,13.4,23.8,23.5,39,31.2
		c14,7.1,26.2,4.4,37.7-5.3c8.5-7.2,16.3-15.3,23.9-23.4c6.1-6.5,12.2-13.1,18.8-19.1c6.9-6.2,14.7-9.4,24.2-8.6
		c7.5,0.6,14.9,1.8,22,4c3.4,1.1,4.3,0.2,5.1-3C1067,601.7,1071.3,573.1,1071.1,541.7z M590.8,297.5c-0.6,0.3-1,0.3-1.2,0.5
		c-0.9,0.6-1.8,1.3-2.6,2c-45,35.9-77.6,80.9-98.2,134.7c-9.8,25.6-16,52.2-19,79.4c-0.2,1.4-0.3,2.5,1.5,3.1
		c16.8,5.7,29,17.6,40,30.7c12.5,14.9,25.3,29.6,37.1,45.2c5.4,7.1,12.1,12.8,20,17c8.5,4.5,17.4,5,25.8,0.9
		c15.2-7.5,28.5-17.7,39.1-31c4-5,4.8-10.6,3.1-16.6c-1.7-6-4.3-11.4-8.1-16.4c-8.7-11.3-19.3-20.8-29-31.2
		c-9.8-10.5-19.3-21.2-25.8-34.2c-2.3-4.5-3.8-9.3-3.8-14.4c0-6.7,3.9-11.4,8.2-15.9c6.6-6.7,13.7-13,19.1-20.8
		c11.2-16.1,14.1-33.4,6.4-51.8c-3.3-7.9-7.1-15.6-10.3-23.6c-5.2-12.8-8.7-26-6.9-40.1C587.1,309.1,589.2,303.5,590.8,297.5z
		 M866.3,251c-1-0.4-1.4-0.6-1.9-0.8c-42.2-13.9-85.3-18.3-129.4-12.8c-3,0.4-4.8,0.9-5.5,4.3c-2.7,12.3-6.9,24.2-11.7,35.9
		c-4.5,11.1-9.5,22-13.9,33.2c-5,12.6-2.3,23.4,7.6,32.7c4,3.8,8.6,6.8,13.3,9.8c8.4,5.4,17.5,9.8,25.8,15.6
		c1.9,1.3,3.3,2.6,2.5,5.1c-3.3,10.5-4.5,21.6-7.3,32.2c-0.7,2.8-0.1,5.5,3,6.7c11.5,4.5,23.2,5.4,34.8,1
		c10-3.9,14.5-12.8,17.7-22.3c3.9-11.5,5.9-23.5,8.1-35.4c4.6-24.7,12.8-47.9,26.3-69.2C844,273.8,854,261.8,866.3,251z"/>
	<path class="st3" d="M282.9,626.2c27.2-0.1,59.8-0.5,92.4,0.8c24.6,1,48.8,4.1,71.9,13.1c13.5,5.2,24.8,13.8,35.6,23
		c15.8,13.4,29.3,29.3,43.8,44.1c30.5,31.2,63.9,58.6,101.2,81.2c15.6,9.4,32.2,16.7,48.5,24.4c10.9,5.2,21.4,10.9,29.5,20.2
		c6.1,7,10.3,15,10.8,24.4c0.7,11.5-5.5,18-17,18.2c-9.5,0.1-18.4-2.4-27.1-5.6c-21.2-7.9-41.6-17.8-62.5-26.6
		c-36.5-15.5-72.9-31.2-109.4-46.7c-2.2-1-5.3-3-6.7,0.4c-1.6,3.7,2.2,4.2,4.5,5.2c34,14.6,67.9,29.3,101.9,43.6
		c24.3,10.3,48.1,21.9,73,30.9c8.2,2.9,16.6,5,25.5,4.9c17.1-0.1,27-12.2,23.5-29c-1.3-6-3.4-11.8-7-16.9c-1.8-2.5-1.1-3.2,1.3-4.3
		c29.9-14.7,60.4-28,90.4-42.3c13-6.2,26-12.7,39.9-16.7c6.7-2,13.5-2.2,20.3-0.3c5.4,1.5,9.1,5,10.3,10.5c1.2,5.6-1.3,10.1-5,14.3
		c-18.1,21.1-43,32.4-66.2,46c-51.4,30.2-105,56.4-158.1,83.5c-13.8,7.1-27.8,14-41.1,22.1c-2,1.2-5.2,2.3-3.5,5.4
		c1.9,3.3,4.5,1,6.6-0.2c26.1-15.1,53.3-28.1,80.1-41.8c46.1-23.6,92.2-47.3,136.7-73.8c13.4-8,26.8-15.9,38.9-25.7
		c2.9-2.3,5.6-4.8,8.1-7.5c0.8-0.9,1.5-2,3-1.7c8.2,1.8,16.2,4,21.5,11.4c4.2,5.8,4.5,10.5,0.7,16.7c-4.2,6.8-10.3,11.8-16.7,16.4
		c-20.5,14.7-41.9,28.1-64.3,39.9c-8.8,4.6-16.7,10.7-25,16c-10.4,6.5-21.2,12.3-31.9,18.1C723,942,684.6,962.4,645,980.4
		c-25.4,11.6-51.1,22.5-77.4,31.7c-9.2,3.2-18.6,5.1-28.3,6.1c-14.1,1.4-26.5-2.8-38.2-10.3c-16.4-10.4-31.3-22.8-46.9-34.2
		c-33.9-25-66.9-51.2-101.4-75.5c-14-9.9-28.5-19-45-24.5c-8.4-2.8-17.1-4.3-25.9-4.7c-27.8-1.1-55.6-1.9-83.4-2.7
		c-5.1-0.2-10.3,0-15.4,0.4c-2.9,0.2-3.7-0.7-3.6-3.6c0.7-31.5,1.3-63,0.7-94.5c-0.8-37-2.5-74-4.4-111c-0.4-8.7-1.4-17.3-2.3-26
		c-0.3-2.6,0.6-3.2,2.9-3.2C210.1,627.7,243.8,626.4,282.9,626.2z"/>
	<path class="st4" d="M896.2,844.1c2.5-2.7,4.7-4.7,6.5-7c8-10.3,6.8-21.7-3-30.4c-4.9-4.4-10.6-6.9-16.9-8.5
		c-1.8-0.4-3-0.8-1.6-3.1c7.6-12.7-0.4-27.7-17.2-30c-12-1.7-22.9,2-33.4,6.7c-28.7,12.9-57.2,26.2-85.7,39.4
		c-11.3,5.3-22.7,10.4-33.7,16.4c-1.1,0.6-1.7,0.5-2.4-0.3c-11.7-13.1-27.6-19.3-43-26.2c-33.1-14.9-62.9-34.9-91-57.7
		c-24.7-20.1-46.7-43-68.4-66.1c-5.6-6-11.4-11.9-17.6-17.2c-0.6-0.5-1.2-1-1.5-1.9c-8-24.9-14.7-50-17.4-76.1
		c-1.9-18.9-2.4-37.9-0.9-56.9c0.2-2.6,1.4-2,2.8-1.4c6.7,2.8,12.9,6.4,18.4,11.2c9.4,8.3,17.3,17.9,25.4,27.5
		c10.1,12,19.9,24.2,29.8,36.4c5,6.3,11.1,11.4,18.1,15.4c11.4,6.6,23.4,7.5,35.1,1.4c14-7.2,26.3-17,37-28.7
		c9.6-10.5,9.6-21.9,3.7-34c-4.1-8.5-10.3-15.5-16.7-22.2c-11.4-11.9-23.5-23.3-33.6-36.5c-5.1-6.6-9.8-13.5-12.2-21.6
		c-1.8-5.8-0.6-10.8,3.7-15.2c5.4-5.5,11-10.9,16.1-16.7c11.7-13.4,18.8-28.6,17.2-46.9c-0.9-10.4-5.1-19.9-9.4-29.2
		c-3.7-7.9-7.2-15.8-9.7-24.2c-4-13.8-2.7-27.2,1.6-40.8c2.1-6.7,5.6-11,11.3-14.8c34.7-22.7,72.3-38,113.1-45.4
		c3.1-0.6,3.5,0,2.7,3c-5.1,19.2-12.8,37.5-20.8,55.7c-3,6.7-5.9,13.4-6.8,20.8c-1.1,10,2.1,18.4,8.5,25.7
		c7.6,8.6,17.6,14,27.2,19.8c3.6,2.1,7.1,4.4,10.8,6.2c3.4,1.7,4.3,3.8,3.4,7.6c-2.2,9.2-4,18.4-5.9,27.7c-1.2,6,0.8,9.8,6.4,12.6
		c5.3,2.6,11,3.5,16.7,3.8c8.7,0.5,17.4,0.5,25.4-3.9c9.5-5.3,14.6-13.9,18-23.7c4.4-12.5,6.4-25.6,8.9-38.6
		c7.1-36.2,21.8-68.6,48.6-94.5c11.2-10.8,6.3-9.4,20.4-3.9c14,5.5,27.3,12.6,40.3,20.4c2.3,1.4,2.4,2.3,1.1,4.4
		c-2.9,4.9-5.4,10.1-8,15.3c-7.5,15.4-6.6,30.8-0.6,46.3c3.1,8,6.9,15.8,11.7,22.8c9.8,14.4,10.7,29.4,5.2,45.5
		c-4.7,13.5-11.3,26-18.1,38.5c-2,3.8-4,7.6-6.1,11.3c-6,11.1-5.2,21.8,1.8,32.2c5.4,8,11.9,14.9,18.7,21.6
		c8,7.8,15.4,16.1,22.6,24.6c4.4,5.3,7,11.5,8.4,18.1c0.4,2,0,3.3-1.7,4.7c-18.9,15.4-39,29.3-59,43.2c-5.4,3.8-10.8,7.7-15.4,12.5
		c-10.3,10.5-11.9,23.2-3.6,35.4c9.3,13.8,22.1,23.8,36.2,32.2c4.4,2.6,9.1,4.7,14,6.5c9.9,3.5,19.3,2.3,28.3-2.7
		c11.3-6.3,19.7-16.1,28.7-25.1c8.3-8.3,15.7-17.5,24.8-25c6-5,12.8-6.9,20.5-5.6c6.4,1,12.8,2.1,19.1,3.7c2.3,0.6,2.8,1.6,2,3.8
		c-9.5,28.5-22.8,55.1-39.3,80.2c-7.8,11.9-17.6,21.7-27.3,31.8c-13.8,14.4-25.4,30.5-38.3,45.6c-14.4,16.9-30.4,31.9-50.3,42.4
		c-0.8,0.4-1.5,0.9-2.2,1.2C897.7,843.9,897.3,843.9,896.2,844.1z M815.3,635.6c0.2-11.9-1.7-19.3-6.4-26
		c-4.4-6.2-10-11.1-16.2-15.3c-9.9-6.6-20.2-12.4-31.8-15.7c-2.2-0.6-3.9-0.4-5.2,1.9c-4.4,8-9,16-13.5,24c-0.5,0.9-1.2,1.5-2.1,1.9
		c-4,1.9-7.9,3.9-12,5.6c-11.2,4.7-22.6,8.7-33.3,14.5c-13.5,7.3-24.8,16.6-30.9,31.2c-5.7,13.6-8,28-10.4,42.3
		c-0.4,2.5-1.6,3.3-3.7,4.1c-22.1,7.9-44.1,16.2-65.6,25.7c-5.4,2.4-4.5,4.5-2.4,8.2c0.7,1.2,2.2,1.5,3.4,2.1
		c16.9,8.3,34.3,15.6,51.1,24.3c21.5,11.1,41.5,24.6,61.4,38.2c3.9,2.7,5.1,2.5,8.2-0.7c13.9-14.5,31-23.4,50.3-27.9
		c13.4-3.1,26.9-3.5,40.5-0.5c2.8,0.6,4.7,0.3,5.6-2.9c0.9-3.1,2.4-5.9,3.1-9c5.2-21.1,2.7-35.6-15.7-48c-2.1-1.4-1.4-2.6-0.5-4.2
		c6-9.7,11-19.9,15.3-30.5C810.6,663.9,814.7,648.2,815.3,635.6z"/>
	<path class="st3" d="M682.8,969.3c10.2-5.2,20.4-9.5,29.7-15.4c7.7-4.9,13.3-4.1,20.8,0.9c20.1,13.7,42.4,23.4,64.2,34
		c32.3,15.7,65.6,29,98.7,42.7c0.8,0.3,1.6,0.7,2.4,0.8c1.6,0.3,3,0,3.6-1.8c0.6-1.7-0.2-3-1.6-3.7c-3.1-1.5-6.3-2.8-9.4-4.1
		c-45.3-18.2-90.1-37.7-133.3-60.5c-5.2-2.7-10.3-5.6-15.4-8.6c-4.2-2.5-8.3-5.2-13.1-8.3c19.2-10.2,38.1-20,57.4-31.1
		c-2.2,6.1-4.1,11.1-4.9,16.3c-0.6,3.9-0.8,7.8-0.1,11.7c2,10.9,9,16.7,20.2,17.1c6.7,0.3,13.1-1.2,19.4-3.4
		c16.5-5.8,31.7-14.2,47.2-22.1c40.9-21.1,82.3-41.3,125.2-58.2c5-2,10.1-3.6,15.2-5.4c2.2-0.8,4.6-1.7,3.6-4.5
		c-1-2.9-3.6-1.8-5.7-1.2c-25.2,8.2-49.1,19.4-73.2,30.4c-31.3,14.3-61.7,30.5-92.4,45.9c-10.3,5.1-20.7,10-32.2,12.1
		c-2.9,0.5-5.9,0.6-8.8,0.2c-10-1.5-13.8-7.4-12.5-20.6c0.5-5.3,2.5-10.2,4.5-15.1c2.7-6.6,7.6-10.7,13.6-14.4
		c29.6-18.1,59.9-34.9,90.5-51.1c27.8-14.8,49.8-35.7,69-60.1c14.3-18.2,29.1-36,46.8-51.2c17.8-15.4,37.4-27.3,60.8-31.8
		c15.8-3,31.8-3.9,47.8-4.8c35.5-1.8,71.1-0.4,106.6-1.1c23-0.4,46.1-0.7,69.1-1.1c2.9-0.1,3.7,0.5,3.4,3.6
		c-1.7,18.9-3.2,37.8-4.8,56.8c-1.7,20.4-3.7,40.7-5.4,61.1c-1.6,19.2-2.9,38.4-4.2,57.6c-1.3,20.4-2.5,40.9-3.5,61.3
		c-0.1,2.7-1.4,2.6-3.3,2.4c-15.5-1.5-31-1.9-46.6-2.4c-22.5-0.7-42.3,6-60.5,18.9c-17.8,12.5-34.1,26.8-51.3,40
		c-34.1,26.1-69.7,50-106,72.8c-24.9,15.7-51.1,18.7-79.3,11.6c-38-9.6-74.3-23.9-110.3-38.9c-42.7-17.8-83.2-39.9-122.6-64.1
		C695.4,978.6,689.1,974.3,682.8,969.3z"/>
	<path class="st5" d="M1071.1,541.7c0.2,31.5-4.1,60.1-11.7,88.2c-0.8,3.1-1.7,4-5.1,3c-7.1-2.2-14.5-3.4-22-4
		c-9.4-0.8-17.3,2.4-24.2,8.6c-6.7,6-12.7,12.6-18.8,19.1c-7.6,8.1-15.4,16.2-23.9,23.4c-11.4,9.7-23.7,12.4-37.7,5.3
		c-15.2-7.7-28.5-17.8-39-31.2c-9.3-11.9-8.1-22.3,3-32.3c2.1-1.9,4.2-3.7,6.5-5.4c9.6-6.8,19.2-13.6,28.8-20.4
		c11.9-8.5,23.8-16.9,35-26.3c0.6-0.5,1.1-1.2,1.7-1.3c5.3-1.1,4.7-4.5,4-8.6c-1.7-10-6.2-18.4-12.7-26
		c-9.7-11.4-20.7-21.6-30.7-32.7c-3.8-4.2-7.1-8.7-9.8-13.7c-3.2-6.2-3.5-12.3-0.7-18.7c4.6-10.3,10.7-19.8,15.7-29.9
		c4.3-8.7,8.1-17.5,11-26.8c5.2-16.5,3.9-32-5.7-46.8c-6.4-9.9-11.8-20.3-14.8-31.8c-2.6-9.8-2.3-19.3,1.6-28.8
		c2.7-6.6,6-12.9,9.4-19.1c1-1.9,1.7-2,3.5-0.8c29.6,19.7,54.8,43.9,75.9,72.5c30.1,40.9,48.8,86.6,56.9,136.7
		C1070,510.3,1071.5,527,1071.1,541.7z"/>
	<path class="st5" d="M590.8,297.5c-1.7,6-3.7,11.6-4.5,17.6c-1.8,14.1,1.7,27.2,6.9,40.1c3.2,7.9,7,15.7,10.3,23.6
		c7.7,18.5,4.9,35.7-6.4,51.8c-5.4,7.8-12.5,14.1-19.1,20.8c-4.4,4.5-8.2,9.2-8.2,15.9c0,5.1,1.5,9.9,3.8,14.4
		c6.5,13,16.1,23.7,25.8,34.2c9.7,10.4,20.3,19.9,29,31.2c3.8,4.9,6.4,10.4,8.1,16.4c1.7,6.1,0.9,11.7-3.1,16.6
		c-10.7,13.3-24,23.5-39.1,31c-8.4,4.2-17.4,3.6-25.8-0.9c-7.9-4.2-14.6-9.9-20-17c-11.8-15.5-24.6-30.2-37.1-45.2
		c-11-13.1-23.2-25.1-40-30.7c-1.8-0.6-1.7-1.7-1.5-3.1c3.1-27.3,9.2-53.8,19-79.4C509.4,381,542,336,587,300.1
		c0.9-0.7,1.7-1.4,2.6-2C589.9,297.9,590.2,297.8,590.8,297.5z"/>
	<path class="st5" d="M866.3,251c-12.2,10.8-22.3,22.7-30.7,36c-13.5,21.3-21.7,44.6-26.3,69.2c-2.2,11.9-4.2,23.9-8.1,35.4
		c-3.2,9.5-7.7,18.4-17.7,22.3c-11.5,4.5-23.3,3.5-34.8-1c-3.1-1.2-3.7-3.9-3-6.7c2.8-10.7,4-21.7,7.3-32.2c0.8-2.5-0.6-3.8-2.5-5.1
		c-8.3-5.7-17.3-10.1-25.8-15.6c-4.6-3-9.2-6-13.3-9.8c-9.9-9.3-12.6-20.1-7.6-32.7c4.4-11.2,9.4-22.1,13.9-33.2
		c4.8-11.7,9-23.6,11.7-35.9c0.7-3.4,2.5-3.9,5.5-4.3c44.1-5.5,87.2-1.1,129.4,12.8C864.8,250.4,865.3,250.6,866.3,251z"/>
	<path class="st0" d="M1022.5,724c0,0.1,0.1,0.1,0.1,0.2c0,0-0.1,0-0.1-0.1C1022.5,724.1,1022.5,724,1022.5,724z"/>
	<path class="st2" d="M815.3,635.6c-0.6,12.6-4.7,28.3-10.9,43.5c-4.3,10.6-9.2,20.8-15.3,30.5c-1,1.6-1.7,2.7,0.5,4.2
		c18.4,12.4,20.8,26.8,15.7,48c-0.8,3.1-2.3,6-3.1,9c-0.9,3.2-2.8,3.5-5.6,2.9c-13.5-3-27.1-2.6-40.5,0.5
		c-19.4,4.5-36.4,13.4-50.3,27.9c-3.1,3.2-4.2,3.4-8.2,0.7c-19.9-13.6-39.9-27.1-61.4-38.2c-16.8-8.7-34.2-15.9-51.1-24.3
		c-1.2-0.6-2.7-0.9-3.4-2.1c-2.1-3.7-3-5.8,2.4-8.2c21.5-9.5,43.5-17.8,65.6-25.7c2.1-0.7,3.3-1.5,3.7-4.1
		c2.4-14.4,4.7-28.8,10.4-42.3c6.1-14.6,17.4-23.9,30.9-31.2c10.7-5.8,22.1-9.8,33.3-14.5c4.1-1.7,8-3.7,12-5.6
		c0.9-0.4,1.6-1,2.1-1.9c4.5-8,9.1-15.9,13.5-24c1.3-2.4,3-2.6,5.2-1.9c11.6,3.3,21.9,9,31.8,15.7c6.3,4.2,11.9,9.1,16.2,15.3
		C813.6,616.3,815.6,623.7,815.3,635.6z M588.3,734.8c1.7,0.9,3,1.6,4.3,2.2c19.7,9.3,39.7,17.9,58.7,28.7
		c16.5,9.3,32,19.9,47.6,30.5c1.9,1.3,2.9,1.3,4.5-0.4c4.1-4.1,8.4-7.9,13.2-11.1c23.7-15.6,49.5-22.5,77.9-17.6
		c1.9,0.3,3-0.1,3.5-2c0.9-3.4,2-6.8,2.8-10.3c3.1-14.9-0.7-27.1-13.9-35.8c-1.4-0.9-2.8-1.9-4.3-2.9c-2.4-1.5-2.9-3.3-1.2-5.9
		c14-21.8,24-45.1,27.5-70.9c1.6-12-0.3-22.9-9.4-31.8C789,597.6,776.3,591,763,585.5c-2.1-0.9-3-0.2-4,1.6
		c-2.2,4.1-5.2,7.9-6.9,12.1c-3.9,10-11.7,15.1-21.2,18.3c-0.1,0-0.2,0.1-0.3,0.1c-11.2,4.7-22.5,8.8-33.3,14.5
		c-16.7,8.8-27.7,21.8-32.1,40.3c-1.6,6.7-3.2,13.3-4.4,20.1c-0.6,3.6-1.9,7.2-1.5,10.9c0.4,3-0.7,4.3-3.3,5.2
		c-13.1,4.1-25.8,9.4-38.6,14.1C607.7,726.3,598.2,730.4,588.3,734.8z"/>
	<path class="st5" d="M588.3,734.8c10-4.4,19.5-8.6,29.2-12.1c12.9-4.8,25.5-10,38.6-14.1c2.6-0.8,3.7-2.2,3.3-5.2
		c-0.5-3.7,0.8-7.3,1.5-10.9c1.2-6.8,2.8-13.4,4.4-20.1c4.4-18.5,15.4-31.5,32.1-40.3c10.8-5.6,22.2-9.8,33.3-14.5
		c0.1,0,0.2-0.1,0.3-0.1c9.6-3.2,17.3-8.3,21.2-18.3c1.7-4.3,4.7-8,6.9-12.1c1-1.8,1.9-2.5,4-1.6c13.3,5.5,26,12.1,36.4,22.3
		c9.1,8.9,11,19.8,9.4,31.8c-3.5,25.9-13.5,49.2-27.5,70.9c-1.6,2.5-1.1,4.3,1.2,5.9c1.4,0.9,2.8,1.9,4.3,2.9
		c13.1,8.6,17,20.9,13.9,35.8c-0.7,3.5-1.9,6.8-2.8,10.3c-0.5,1.9-1.7,2.4-3.5,2c-28.4-4.9-54.1,2-77.9,17.6
		c-4.8,3.2-9.2,7-13.2,11.1c-1.7,1.7-2.7,1.7-4.5,0.4c-15.5-10.7-31.1-21.3-47.6-30.5c-19-10.7-39-19.4-58.7-28.7
		C591.2,736.4,590,735.7,588.3,734.8z"/>
</g>
</svg>
